<?xml version="1.0" encoding="utf-8"?>
<!-- Generator: Adobe Illustrator 19.0.0, SVG Export Plug-In . SVG Version: 6.00 Build 0)  -->
<svg version="1.1" id="Layer_1" xmlns="http://www.w3.org/2000/svg" xmlns:xlink="http://www.w3.org/1999/xlink" x="0px" y="0px"
	 viewBox="-294 341 690 120" style="enable-background:new -294 341 690 120;" xml:space="preserve">
<style type="text/css">
	.st0{fill:#191919;}
</style>
<g id="XMLID_139_">
	<path id="XMLID_141_" d="M-116.5,437.8l-15.7,1.1l-0.7-0.7v-6.1h-0.3c-0.8,0.8-1.7,1.7-2.6,2.6c-0.9,0.9-2.1,1.8-3.4,2.5
		c-1.5,0.9-2.9,1.5-4.2,2c-1.4,0.5-3.3,0.7-5.8,0.7c-4.3,0-7.5-1.4-9.7-4.2c-2.2-2.8-3.3-6.8-3.3-12.1v-23c0-1.2-0.2-2.2-0.7-3
		c-0.4-0.8-1.1-1.5-1.9-2.1c-0.6-0.4-1.3-0.7-2.2-0.9c-0.9-0.2-1.8-0.3-2.8-0.4V391l16.1-1.2l0.7,0.7v33.4c0,3.5,0.8,6.1,2.3,7.9
		c1.5,1.8,3.4,2.6,5.6,2.6c1.8,0,3.4-0.3,4.8-0.8c1.4-0.6,2.6-1.2,3.5-2c0.9-0.7,1.7-1.4,2.3-2.2c0.7-0.8,1.2-1.5,1.5-2.1v-27.1
		c0-1.1-0.2-2-0.7-2.9c-0.5-0.8-1.1-1.5-1.9-2.1c-0.6-0.4-1.5-0.6-2.6-0.7c-1.2-0.1-2.4-0.2-3.9-0.2v-3.2l17.5-1.2l0.7,0.7v38.2
		c0,1.1,0.2,2,0.7,2.8s1.1,1.4,1.9,2c0.6,0.4,1.3,0.6,2.1,0.7c0.8,0.1,1.7,0.2,2.7,0.2L-116.5,437.8L-116.5,437.8z"/>
	<path id="XMLID_143_" d="M-53.7,414.6c0,7.2-2.3,13.3-6.8,18.2c-4.6,4.9-9.8,7.4-15.9,7.4c-2.6,0-5.2-0.4-7.8-1.2s-5-1.9-7.2-3.3
		l-3.6,5.6l-3-0.7c0.2-2.4,0.3-5.3,0.3-8.7c0.1-3.4,0.1-6.7,0.1-9.8v-47.7c0-1.1-0.3-2.2-0.8-3.3s-1.1-1.9-1.9-2.4
		c-0.6-0.4-1.7-0.7-3.1-1c-1.4-0.2-2.6-0.4-3.5-0.4v-3.1l17.7-1.1l0.7,0.7v31.7l0.3,0.1c2-2.1,4.2-3.8,6.6-4.8s4.7-1.6,7.1-1.6
		c5.9,0,10.9,2.3,14.8,7C-55.8,400.9-53.7,407-53.7,414.6z M-63.9,414.9c0-2.4-0.3-4.9-0.8-7.4s-1.3-4.7-2.4-6.5
		c-1.1-1.9-2.6-3.4-4.3-4.6c-1.8-1.2-3.9-1.8-6.4-1.8c-2.3,0-4.3,0.4-6,1.3s-3.2,2.1-4.6,3.6v28c0.2,0.8,0.6,1.7,1.1,2.7
		c0.6,1,1.3,2,2.3,3c1,0.9,2.1,1.7,3.3,2.2c1.2,0.6,2.8,0.9,4.5,0.9c4,0,7.2-1.9,9.6-5.8C-65.1,426.8-63.9,421.6-63.9,414.9z"/>
	<path id="XMLID_149_" d="M-16,438.7h-23.5v-3.2c0.7-0.1,1.5-0.1,2.4-0.2c0.8-0.1,1.5-0.2,2.1-0.4c0.9-0.3,1.6-0.8,2.1-1.5
		c0.5-0.7,0.7-1.7,0.7-2.9v-55.8c0-1.2-0.3-2.3-0.8-3.3s-1.2-1.8-2-2.4c-0.6-0.4-1.7-0.7-3.2-1.1c-1.6-0.3-2.8-0.5-3.8-0.6v-3.1
		l18.1-1.1l0.7,0.7v66.1c0,1.1,0.2,2.1,0.6,2.8c0.4,0.7,1.1,1.3,2.1,1.7c0.7,0.3,1.4,0.6,2.1,0.7c0.7,0.2,1.5,0.3,2.4,0.3L-16,438.7
		L-16,438.7z"/>
	<path id="XMLID_151_" d="M21.4,438.7H-1.8v-3.2c0.7-0.1,1.5-0.1,2.3-0.2c0.8-0.1,1.5-0.2,2.1-0.4c0.9-0.3,1.6-0.8,2-1.5
		c0.4-0.7,0.7-1.7,0.7-2.9v-29.7c0-1-0.2-2-0.7-2.9s-1.1-1.6-2-2.2c-0.6-0.4-1.5-0.7-2.7-1c-1.2-0.3-2.2-0.4-3.2-0.5V391l17-1.1
		l0.7,0.7v39.3c0,1.1,0.2,2.1,0.7,2.8c0.4,0.7,1.1,1.3,2.1,1.7c0.7,0.3,1.4,0.5,2.1,0.7c0.7,0.2,1.4,0.3,2.3,0.4v3.2H21.4z
		 M15.3,371c0,1.9-0.6,3.5-1.8,4.9c-1.2,1.4-2.7,2.1-4.5,2.1c-1.7,0-3.1-0.7-4.3-2s-1.8-2.8-1.8-4.5c0-1.8,0.6-3.4,1.8-4.7
		c1.2-1.3,2.7-2,4.3-2c1.9,0,3.4,0.6,4.6,1.9C14.7,367.8,15.3,369.3,15.3,371z"/>
	<path id="XMLID_154_" d="M67.2,415.1c1.3,1.2,2.4,2.5,3.1,4.1c0.7,1.5,1.1,3.4,1.1,5.6c0,4.5-1.7,8.1-5,10.9
		c-3.3,2.8-7.7,4.2-13,4.2c-2.8,0-5.4-0.5-7.7-1.5c-2.4-1-4-1.9-5.1-2.8l-1,3.2h-3.7l-0.5-16.7h3.4c0.3,1.3,0.8,2.8,1.7,4.5
		c0.8,1.7,1.9,3.2,3.1,4.6c1.3,1.4,2.8,2.6,4.6,3.6c1.8,1,3.8,1.5,6,1.5c3.1,0,5.5-0.7,7.2-2.1s2.5-3.5,2.5-6.1
		c0-1.4-0.3-2.5-0.8-3.5s-1.3-1.9-2.4-2.6c-1.1-0.7-2.4-1.4-4-2c-1.6-0.6-3.3-1.2-5.2-1.8c-1.5-0.5-3.2-1.1-5.1-1.9
		s-3.5-1.7-4.8-2.8c-1.4-1.1-2.6-2.5-3.5-4.2s-1.4-3.6-1.4-5.9c0-3.9,1.5-7.3,4.4-10c2.9-2.7,6.9-4.1,11.8-4.1
		c1.9,0,3.8,0.2,5.8,0.7s3.6,1.1,4.8,1.8l1.1-2.5h3.5l0.7,15.5h-3.4c-0.7-3.5-2.2-6.3-4.4-8.5c-2.3-2.2-5-3.3-8.3-3.3
		c-2.7,0-4.8,0.7-6.3,2c-1.5,1.3-2.3,3-2.3,4.9c0,1.5,0.3,2.7,0.8,3.7s1.3,1.8,2.3,2.5c1,0.7,2.2,1.3,3.7,1.8
		c1.5,0.6,3.3,1.2,5.5,1.9c2.1,0.7,4.2,1.5,6.1,2.4C64.3,413,65.9,414,67.2,415.1z"/>
	<path id="XMLID_156_" d="M139,438.7h-23.7v-3.2c0.7-0.1,1.6-0.1,2.5-0.2c0.9-0.1,1.7-0.2,2.2-0.4c0.9-0.3,1.6-0.8,2-1.5
		c0.4-0.7,0.7-1.7,0.7-2.9v-24.8c0-3.4-0.8-6.1-2.4-7.9c-1.6-1.8-3.6-2.8-5.9-2.8c-1.7,0-3.3,0.3-4.7,0.8c-1.5,0.5-2.8,1.2-3.9,2
		c-1.1,0.8-2,1.6-2.5,2.4c-0.6,0.8-1,1.5-1.4,2.1V430c0,1.1,0.2,2,0.7,2.7c0.4,0.7,1.1,1.3,2,1.7c0.7,0.3,1.5,0.6,2.2,0.7
		c0.8,0.2,1.6,0.3,2.5,0.3v3.2H85.7v-3.2c0.7-0.1,1.5-0.1,2.3-0.2c0.8-0.1,1.5-0.2,2-0.4c0.9-0.3,1.6-0.8,2-1.5
		c0.5-0.7,0.7-1.7,0.7-2.9v-56c0-1.1-0.3-2.2-0.8-3.3s-1.2-1.9-2-2.5c-0.6-0.4-1.6-0.7-3.1-0.9c-1.5-0.2-2.7-0.3-3.6-0.4v-3.1
		l17.8-1.1l0.7,0.7v33.6h0.2c1.1-1.1,2.1-2,2.9-2.9c0.9-0.8,2-1.7,3.5-2.6c1.2-0.8,2.7-1.4,4.4-2c1.7-0.5,3.6-0.8,5.6-0.8
		c4.3,0,7.6,1.4,9.9,4.1c2.3,2.7,3.5,6.6,3.5,11.7v25c0,1.1,0.2,2.1,0.6,2.8c0.4,0.7,1.1,1.2,2,1.6c0.8,0.3,1.4,0.5,2,0.7
		s1.4,0.3,2.4,0.3v3.4H139z"/>
	<path id="XMLID_158_" d="M256.2,372.9c-0.9,0-2.2,0.2-4,0.6s-3.2,0.9-4.3,1.6c-1.1,0.7-1.9,2.3-2.3,4.6c-0.4,2.3-0.6,5.2-0.6,8.6
		v30.1c0,3.8-0.8,7.2-2.4,10c-1.6,2.8-3.7,5.2-6.3,7s-5.3,3-8.1,3.8c-2.8,0.8-5.6,1.1-8.2,1.1c-4.2,0-7.9-0.5-11.1-1.6
		c-3.3-1.1-6-2.6-8.2-4.4c-2.2-1.9-3.8-4-4.9-6.4s-1.7-4.9-1.7-7.5v-41c0-1.1-0.2-2.1-0.6-2.9c-0.4-0.8-1.1-1.5-2.3-2.1
		c-0.8-0.5-1.9-0.8-3.1-1.1c-1.3-0.3-2.3-0.4-3.1-0.5v-3.5h28.9v3.5c-0.9,0-2.1,0.2-3.4,0.4c-1.4,0.3-2.4,0.5-3.1,0.7
		c-1.1,0.4-1.8,1-2.2,2c-0.4,0.9-0.6,1.9-0.6,3v38.3c0,1.9,0.2,3.8,0.6,5.8s1.2,3.9,2.4,5.7c1.3,1.8,3,3.3,5.2,4.4s5.2,1.7,9,1.7
		c3.6,0,6.6-0.6,9-1.7s4.3-2.6,5.7-4.5c1.3-1.8,2.3-3.6,2.8-5.5c0.6-1.9,0.8-3.9,0.8-5.8v-28.4c0-3.6-0.3-6.6-0.8-8.9
		s-1.3-3.8-2.3-4.5c-1.1-0.8-2.7-1.4-4.7-1.9s-3.5-0.7-4.5-0.8v-3.5h28.3L256.2,372.9L256.2,372.9z"/>
	<path id="XMLID_160_" d="M326.2,388.2h-3.4c-0.3-1.2-0.8-2.6-1.6-4.2s-1.6-3.1-2.6-4.6s-2-2.8-3.2-3.9s-2.3-1.8-3.4-1.9
		c-1-0.1-2.3-0.2-3.8-0.3c-1.5-0.1-3-0.1-4.3-0.1h-2.8v55.4c0,1.1,0.2,2.1,0.7,3s1.3,1.6,2.4,2.1c0.6,0.2,1.8,0.5,3.7,0.9
		s3.3,0.6,4.4,0.6v3.5h-32.7v-3.5c0.9-0.1,2.3-0.2,4.2-0.4c1.9-0.2,3.2-0.4,3.9-0.7c1.1-0.4,1.9-1,2.4-1.8c0.5-0.8,0.8-1.9,0.8-3.2
		v-55.9h-2.8c-1,0-2.3,0-3.8,0.1c-1.5,0-2.9,0.2-4.3,0.3c-1.1,0.1-2.2,0.8-3.3,1.9c-1.2,1.2-2.2,2.5-3.2,3.9s-1.8,3-2.6,4.7
		c-0.7,1.6-1.3,3-1.6,4.1h-3.4v-18.8h60.4v18.8H326.2z"/>
	<path id="XMLID_162_" d="M396,388.2h-3.4c-0.3-1.2-0.8-2.6-1.6-4.2s-1.6-3.1-2.6-4.6s-2-2.8-3.2-3.9s-2.3-1.8-3.4-1.9
		c-1-0.1-2.3-0.2-3.8-0.3c-1.5-0.1-3-0.1-4.3-0.1H371v55.4c0,1.1,0.2,2.1,0.7,3s1.3,1.6,2.4,2.1c0.6,0.2,1.8,0.5,3.7,0.9
		s3.3,0.6,4.4,0.6v3.5h-32.7v-3.5c0.9-0.1,2.3-0.2,4.2-0.4c1.9-0.2,3.2-0.4,3.9-0.7c1.1-0.4,1.9-1,2.4-1.8c0.5-0.8,0.8-1.9,0.8-3.2
		v-55.9H358c-1,0-2.3,0-3.8,0.1c-1.5,0-2.9,0.2-4.3,0.3c-1.1,0.1-2.2,0.8-3.3,1.9c-1.2,1.2-2.2,2.5-3.2,3.9s-1.8,3-2.6,4.7
		c-0.7,1.6-1.3,3-1.6,4.1h-3.4v-18.8H396V388.2z"/>
</g>
<g id="XMLID_94_">
	<g id="XMLID_2_">
		<path id="XMLID_5_" class="st0" d="M-221.5,372.1c-1.3-1.7-2.9-3-4.9-4c-2-0.9-4.6-1.5-7.6-1.5h-7.9v34h5.9c3.9,0,7-0.7,9.4-1.9
			c2.4-1.2,4.2-2.7,5.5-4.5c1.2-1.7,2-3.5,2.4-5.4c0.4-1.8,0.6-3.5,0.6-5c0-2-0.2-4.1-0.7-6.2C-219.5,375.5-220.3,373.7-221.5,372.1
			z"/>
		<path id="XMLID_12_" class="st0" d="M-289,345.7v110h110v-110H-289z M-207.3,391.7c-1.6,3.1-3.7,5.6-6.5,7.6c-2.7,2-5.7,3.2-9,4.2
			c-3.3,0.9-6.7,1.2-10.4,1.2h-8.9v23.6c0,1.3,0.4,2.4,0.8,3.3c0.4,0.9,1.4,1.7,2.6,2.2c0.6,0.3,1.6,0.5,3.2,0.7
			c1.6,0.2,3.3,0.3,4.3,0.4v3.9h-32v-3.9c1-0.1,2-0.2,3.6-0.4s2.7-0.4,3.3-0.7c1.1-0.5,1.9-1.1,2.3-2c0.5-0.9,0.7-2,0.7-3.4v-55
			c0-1.3-0.2-2.4-0.6-3.4c-0.4-1-1.2-1.8-2.5-2.3c-1.4-0.5-2.9-0.8-4.2-1c-1.3-0.2-2.6-0.3-3.6-0.4v-3.5h35.4c7.1,0,12.8,1.6,17.3,5
			c4.4,3.4,6.6,7.9,6.6,13.6C-204.9,385.2-205.7,388.7-207.3,391.7z"/>
	</g>
	<g id="XMLID_6_">
		<path id="XMLID_144_" d="M-176,343v116h-116V343H-176 M-174,341h-120v120h120V341L-174,341z"/>
	</g>
</g>
</svg>
